<svg xmlns="http://www.w3.org/2000/svg" data-name="Слой 1" viewBox="0 0 128 160" x="0px" y="0px"><title>pencil, edit, content,  window, layout, cms</title><circle cx="105.38" cy="20.39" r="2"/><circle cx="97.44" cy="20.39" r="2"/><circle cx="89.5" cy="20.39" r="2"/><path d="M118,75.67a2,2,0,0,0-2,2V113a3.08,3.08,0,0,1-3.12,3H7.12A3.08,3.08,0,0,1,4,113V32H116v7a2,2,0,0,0,4,0V15a7.09,7.09,0,0,0-7.12-7H7.12A7.09,7.09,0,0,0,0,15V113a7.09,7.09,0,0,0,7.12,7H112.88a7.09,7.09,0,0,0,7.12-7V77.67A2,2,0,0,0,118,75.67ZM7.12,12H112.88A3.08,3.08,0,0,1,116,15V28H4V15A3.08,3.08,0,0,1,7.12,12Z"/><path d="M58,88H14a2,2,0,0,0,0,4H58a2,2,0,0,0,0-4Z"/><path d="M58,100H14a2,2,0,0,0,0,4H58a2,2,0,0,0,0-4Z"/><path d="M96,46a2,2,0,0,0-2-2H70a2,2,0,0,0,0,4H94A2,2,0,0,0,96,46Z"/><path d="M70,56a2,2,0,0,0,0,4H86a2,2,0,0,0,0-4Z"/><path d="M115.37,44.54a2,2,0,0,0-2.83,0L73.17,83.91a2,2,0,0,0-.51.88l-4.59,16.64a2,2,0,0,0,2.46,2.46L87.16,99.3a2,2,0,0,0,.88-.51l39.37-39.37a2,2,0,0,0,0-2.83ZM74.18,94.28l3.49,3.49L72.85,99.1Zm11.4,1.3-3.48,1-6.7-6.7,1-3.48L106,56.75,115.21,66ZM118,63.14l-9.22-9.22L114,48.78,123.17,58Z"/><path d="M60,46s0,0,0,0a2,2,0,0,0,0-.24c0-.05,0-.11,0-.16a2,2,0,0,0-.06-.2c0-.06,0-.12-.06-.18s-.06-.1-.08-.16a2,2,0,0,0-.11-.19l0,0-.1-.11-.14-.16-.16-.13-.15-.11-.18-.1-.17-.08-.2-.06-.18,0-.23,0H13.87l-.23,0-.17,0-.2.06-.16.08-.18.1-.15.11-.16.13-.14.15-.1.11,0,0a2,2,0,0,0-.11.19c0,.05-.06.1-.08.16s0,.12-.06.18a2,2,0,0,0-.06.2c0,.05,0,.11,0,.16A2,2,0,0,0,12,46s0,0,0,0V78s0,0,0,0a2,2,0,0,0,0,.24c0,.05,0,.11,0,.16a2,2,0,0,0,.06.2c0,.06,0,.12.06.18s.06.1.08.16a2,2,0,0,0,.11.19l0,0,.07.07a2,2,0,0,0,.21.23l.13.1.23.15.14.07.29.11.11,0A2,2,0,0,0,14,80H58a2,2,0,0,0,.43-.05l.11,0,.29-.11.14-.07.23-.15.13-.1a2,2,0,0,0,.21-.23l.07-.07,0,0a2,2,0,0,0,.11-.19c0-.05.06-.1.08-.16s0-.12.06-.18a2,2,0,0,0,.06-.2c0-.05,0-.1,0-.16A2,2,0,0,0,60,78s0,0,0,0ZM16,49.93,32.6,62,16,74.07ZM20.15,48h31.7L36,59.53ZM36,64.47,51.85,76H20.15ZM39.4,62,56,49.93V74.07Z"/><text x="0" y="143" fill="#000000" font-size="5px" font-weight="bold" font-family="'Helvetica Neue', Helvetica, Arial-Unicode, Arial, Sans-serif">Created by LAFS</text><text x="0" y="148" fill="#000000" font-size="5px" font-weight="bold" font-family="'Helvetica Neue', Helvetica, Arial-Unicode, Arial, Sans-serif">from the Noun Project</text></svg>