<svg xmlns="http://www.w3.org/2000/svg" viewBox="0 0 64 80" x="0px" y="0px"><title>03 design brush fountain pen dekstop mojave MacOs</title><rect x="28.33" y="8" width="8.54" height="2"/><path d="M60,8H49.67v2H59V39H49V34h1a1,1,0,0,0,1-1V29a1,1,0,0,0-1-1h-.3l4.17-7.51a1,1,0,0,0,0-1l-10-16h0A1,1,0,0,0,43.28,3a1,1,0,0,0-1.12.43l-10,16a1,1,0,0,0,0,1L36.3,28H36a1,1,0,0,0-1,1v4a1,1,0,0,0,1,1h1v5H27V34h1a1,1,0,0,0,1-1V29a1,1,0,0,0-1-1h-.72A14.85,14.85,0,0,0,30,19c0-6.31-7.92-15.29-8.25-15.66A1,1,0,0,0,20,3.93a13.21,13.21,0,0,1-1.83,5.52A15.08,15.08,0,0,1,15.66,12C13.48,14,11,16.2,11,20c0,4.16,1.28,6.71,2.46,8.18A1,1,0,0,0,13,29v4a1,1,0,0,0,1,1h1v5H5V10H16V8H4A1,1,0,0,0,3,9V51a1,1,0,0,0,1,1H26v7H18.5v2h27V59H38V52H60a1,1,0,0,0,1-1V9A1,1,0,0,0,60,8ZM49,32H37V30H49ZM43,21a2,2,0,1,1-2,2A2,2,0,0,1,43,21Zm-8.84-1L42,7.49V19.14a4,4,0,1,0,2,0V7.49L51.84,20l-4.43,8H38.59ZM39,34h8v5H39ZM27,32H15V30H27ZM17,13.53a16.45,16.45,0,0,0,2.84-3,13.55,13.55,0,0,0,1.78-4.24C23.84,9.12,28,14.91,28,19c0,5.48-2.56,8.26-3.37,9H16.12c-.7-.49-3.12-2.56-3.12-8C13,17.1,14.94,15.37,17,13.53ZM17,34h8v5H17ZM36,59H28V52h8Zm23-9H5V41H59Z"/><circle cx="32" cy="45" r="2"/><rect x="33" y="36" width="2" height="2"/><rect x="29" y="36" width="2" height="2"/></svg>