<svg xmlns="http://www.w3.org/2000/svg" xmlns:xlink="http://www.w3.org/1999/xlink" version="1.1" x="0px" y="0px" viewBox="0 0 100 125" enable-background="new 0 0 100 100" xml:space="preserve"><g><path d="M7.25,7.958v85.083h85.5V7.958H7.25z M90.25,10.458v7.626H9.75v-7.626H90.25z M90.25,20.584v59.625H9.75V20.584H90.25z    M9.75,90.541v-7.832h80.5v7.832H9.75z"/><rect x="12.75" y="12.875" width="9.5" height="2.5"/><rect x="76.417" y="12.875" width="2.333" height="2.5"/><rect x="80.417" y="12.875" width="2.333" height="2.5"/><rect x="84.417" y="12.875" width="2.333" height="2.5"/><rect x="36.894" y="85.209" width="26.5" height="2.5"/><polygon points="42.912,59.081 33.561,50.374 42.912,41.667 41.208,39.837 29.893,50.374 41.208,60.911  "/><polygon points="59.08,39.837 57.377,41.667 66.727,50.374 57.377,59.081 59.08,60.911 70.395,50.374  "/><rect x="39.535" y="48.563" transform="matrix(0.381 -0.9246 0.9246 0.381 -15.0175 77.195)" width="21.218" height="2.5"/><rect x="12.75" y="23.917" width="15.75" height="2.5"/><rect x="49.536" y="23.917" width="8.878" height="2.5"/><rect x="60.747" y="23.917" width="26.003" height="2.5"/><rect x="12.75" y="28.917" width="43.792" height="2.5"/><rect x="58.229" y="28.917" width="5.938" height="2.5"/><rect x="66.5" y="28.917" width="20.25" height="2.5"/><rect x="12.75" y="33.917" width="9.5" height="2.5"/><rect x="23.937" y="33.917" width="52.48" height="2.5"/><rect x="78.75" y="33.917" width="8" height="2.5"/><rect x="12.75" y="63.916" width="21.053" height="2.5"/><rect x="35.489" y="63.916" width="12.88" height="2.5"/><rect x="74.5" y="63.916" width="12.25" height="2.5"/><rect x="50.703" y="63.916" width="18.464" height="2.5"/><rect x="46.667" y="68.916" width="9.875" height="2.5"/><rect x="33" y="68.916" width="11.333" height="2.5"/><rect x="12.75" y="68.916" width="16.583" height="2.5"/><rect x="58.229" y="68.916" width="5.938" height="2.5"/><rect x="66.5" y="68.916" width="20.25" height="2.5"/><rect x="40.833" y="73.916" width="25.667" height="2.5"/><rect x="12.75" y="73.916" width="25.25" height="2.5"/><rect x="68.187" y="73.916" width="5.938" height="2.5"/><rect x="76.458" y="73.916" width="10.292" height="2.5"/><rect x="30.333" y="23.917" width="15.958" height="2.5"/></g></svg>