<svg xmlns="http://www.w3.org/2000/svg" xmlns:xlink="http://www.w3.org/1999/xlink" viewBox="0 0 60 30" version="1.1" x="0px" y="0px"><title>046-Float</title><desc>Created with Sketch.</desc><g stroke="none" stroke-width="1" fill="none" fill-rule="evenodd" stroke-linecap="round"><g transform="translate(1.000000, 1.000000)" stroke="#000000" stroke-width="2"><path d="M0,22 L0,18"/><path d="M58,22 L0,22"/><path d="M58,22 L58,18"/><path d="M58,18 L0,18"/><path d="M7,17 L7,14"/><path d="M14,14 L7,14"/><path d="M51,17 L51,14"/><path d="M51,14 L18,14"/><path d="M35,1 L27,1"/><path d="M35,5 L27,5"/><path d="M52,0 L52,6"/><path d="M35,0 L35,6"/><path d="M35,6 L52,6"/><path d="M35,0 L52,0"/><path d="M18,14 C18,9.025 22.025,5 27,5"/><path d="M14,14 C14,6.814 19.814,1 27,1"/></g></g><text x="0" y="39" fill="#000000" font-size="5px" font-weight="bold" font-family="'Helvetica Neue', Helvetica, Arial-Unicode, Arial, Sans-serif"></text><text x="0" y="44" fill="#000000" font-size="5px" font-weight="bold" font-family="'Helvetica Neue', Helvetica, Arial-Unicode, Arial, Sans-serif"></text></svg>